<?xml version="1.0" encoding="UTF-8" standalone="no"?>
<!-- Created with Inkscape (http://www.inkscape.org/) -->

<svg
   xmlns:dc="http://purl.org/dc/elements/1.1/"
   xmlns:cc="http://creativecommons.org/ns#"
   xmlns:rdf="http://www.w3.org/1999/02/22-rdf-syntax-ns#"
   xmlns:svg="http://www.w3.org/2000/svg"
   xmlns="http://www.w3.org/2000/svg"
   xmlns:sodipodi="http://sodipodi.sourceforge.net/DTD/sodipodi-0.dtd"
   xmlns:inkscape="http://www.inkscape.org/namespaces/inkscape"
   width="920"
   height="680"
   id="svg2"
   version="1.1"
   inkscape:version="0.48.5 r10040"
   sodipodi:docname="promotional large tile.svg"
   inkscape:export-filename="D:\Documents\Dropbox\Programming\screenshots\promotional large tile.png"
   inkscape:export-xdpi="90"
   inkscape:export-ydpi="90">
  <defs
     id="defs4" />
  <sodipodi:namedview
     id="base"
     pagecolor="#1560bd"
     bordercolor="#666666"
     borderopacity="1.0"
     inkscape:pageopacity="1"
     inkscape:pageshadow="2"
     inkscape:zoom="0.35"
     inkscape:cx="375"
     inkscape:cy="520"
     inkscape:document-units="px"
     inkscape:current-layer="layer1"
     showgrid="false"
     inkscape:window-width="1920"
     inkscape:window-height="1058"
     inkscape:window-x="1912"
     inkscape:window-y="-8"
     inkscape:window-maximized="1" />
  <metadata
     id="metadata7">
    <rdf:RDF>
      <cc:Work
         rdf:about="">
        <dc:format>image/svg+xml</dc:format>
        <dc:type
           rdf:resource="http://purl.org/dc/dcmitype/StillImage" />
        <dc:title></dc:title>
      </cc:Work>
    </rdf:RDF>
  </metadata>
  <g
     inkscape:label="Layer 1"
     inkscape:groupmode="layer"
     id="layer1"
     transform="translate(0,-372.36218)">
    <text
       xml:space="preserve"
       x="95.588776"
       y="555.13812"
       style="font-size:87.6940918px;font-style:normal;font-weight:normal;text-align:start;text-anchor:start;fill:#ffffff;font-family:Lato"
       id="text2995"
       transform="scale(1.0005737,0.99942663)">Practical </text>
    <text
       xml:space="preserve"
       x="444.93011"
       y="555.13812"
       style="font-size:87.6940918px;font-style:normal;font-weight:normal;text-align:start;text-anchor:start;fill:#ffffff;font-family:Lato"
       id="text2997"
       transform="scale(1.0005737,0.99942663)">Startpage</text>
    <text
       xml:space="preserve"
       x="597.28491"
       y="683.11792"
       style="font-size:42.57149506px;font-style:normal;font-weight:normal;text-align:start;text-anchor:start;fill:#ffffff;font-family:Lato"
       id="text2999"
       transform="scale(1.0005737,0.99942663)">Simple</text>
    <text
       xml:space="preserve"
       x="597.28491"
       y="759.65088"
       style="font-size:42.57149506px;font-style:normal;font-weight:normal;text-align:start;text-anchor:start;fill:#ffffff;font-family:Lato"
       id="text3001"
       transform="scale(1.0005737,0.99942663)">Structured</text>
    <text
       xml:space="preserve"
       x="597.28491"
       y="836.18396"
       style="font-size:42.57149506px;font-style:normal;font-weight:normal;text-align:start;text-anchor:start;fill:#ffffff;font-family:Lato"
       id="text3003"
       transform="scale(1.0005737,0.99942663)">Responsive</text>
    <text
       xml:space="preserve"
       x="597.28491"
       y="912.71698"
       style="font-size:42.57149506px;font-style:normal;font-weight:normal;text-align:start;text-anchor:start;fill:#ffffff;font-family:Lato"
       id="text3005"
       transform="scale(1.0005737,0.99942663)">Functional</text>
    <path
       inkscape:connector-curvature="0"
       style="fill:#ffffff;fill-opacity:1;fill-rule:evenodd;stroke:none"
       d="m 548.81275,663.52075 c 0,-2.43012 1.97425,-4.40211 4.40716,-4.40211 l 17.58877,0 c 2.43291,0 4.38722,1.97199 4.38722,4.40211 l 0,17.5686 c 0,2.41021 -1.95431,4.38219 -4.38722,4.38219 l -17.58877,0 c -2.43291,0 -4.40716,-1.97198 -4.40716,-4.38219 z"
       id="path3007" />
    <path
       inkscape:connector-curvature="0"
       style="fill:none;stroke:#ffffff;stroke-width:2.65075326px;stroke-linecap:butt;stroke-linejoin:round;stroke-opacity:1;stroke-dasharray:none"
       d="m 548.81275,663.52075 c 0,-2.43012 1.97425,-4.40211 4.40716,-4.40211 l 17.58877,0 c 2.43291,0 4.38722,1.97199 4.38722,4.40211 l 0,17.5686 c 0,2.41021 -1.95431,4.38219 -4.38722,4.38219 l -17.58877,0 c -2.43291,0 -4.40716,-1.97198 -4.40716,-4.38219 z"
       id="path3009" />
    <path
       inkscape:connector-curvature="0"
       style="fill:#ffffff;fill-opacity:1;fill-rule:evenodd;stroke:none"
       d="m 548.81275,738.37654 c 0,-2.43013 1.97425,-4.40211 4.40716,-4.40211 l 17.54888,0 c 2.43291,0 4.38722,1.97198 4.38722,4.40211 l 0,17.5686 c 0,2.43012 -1.95431,4.38219 -4.38722,4.38219 l -17.54888,0 c -2.43291,0 -4.40716,-1.95207 -4.40716,-4.38219 z"
       id="path3011" />
    <path
       inkscape:connector-curvature="0"
       style="fill:none;stroke:#ffffff;stroke-width:2.65075326px;stroke-linecap:butt;stroke-linejoin:round;stroke-opacity:1;stroke-dasharray:none"
       d="m 548.81275,738.37654 c 0,-2.43013 1.97425,-4.40211 4.40716,-4.40211 l 17.54888,0 c 2.43291,0 4.38722,1.97198 4.38722,4.40211 l 0,17.5686 c 0,2.43012 -1.95431,4.38219 -4.38722,4.38219 l -17.54888,0 c -2.43291,0 -4.40716,-1.95207 -4.40716,-4.38219 z"
       id="path3013" />
    <path
       inkscape:connector-curvature="0"
       style="fill:#ffffff;fill-opacity:1;fill-rule:evenodd;stroke:none"
       d="m 548.81275,813.23232 c 0,-2.43012 1.97425,-4.38219 4.40716,-4.38219 l 17.54888,0 c 2.43291,0 4.38722,1.95207 4.38722,4.38219 l 0,17.5686 c 0,2.43013 -1.95431,4.3822 -4.38722,4.3822 l -17.54888,0 c -2.43291,0 -4.40716,-1.95207 -4.40716,-4.3822 z"
       id="path3015" />
    <path
       inkscape:connector-curvature="0"
       style="fill:none;stroke:#ffffff;stroke-width:2.65075326px;stroke-linecap:butt;stroke-linejoin:round;stroke-opacity:1;stroke-dasharray:none"
       d="m 548.81275,813.23232 c 0,-2.43012 1.97425,-4.38219 4.40716,-4.38219 l 17.54888,0 c 2.43291,0 4.38722,1.95207 4.38722,4.38219 l 0,17.5686 c 0,2.43013 -1.95431,4.3822 -4.38722,4.3822 l -17.54888,0 c -2.43291,0 -4.40716,-1.95207 -4.40716,-4.3822 z"
       id="path3017" />
    <path
       inkscape:connector-curvature="0"
       style="fill:#ffffff;fill-opacity:1;fill-rule:evenodd;stroke:none"
       d="m 548.81275,888.08811 c 0,-2.43012 1.97425,-4.38219 4.40716,-4.38219 l 17.54888,0 c 2.43291,0 4.38722,1.95207 4.38722,4.38219 l 0,17.58851 c 0,2.41021 -1.95431,4.3822 -4.38722,4.3822 l -17.54888,0 c -2.43291,0 -4.40716,-1.97199 -4.40716,-4.3822 z"
       id="path3019" />
    <path
       inkscape:connector-curvature="0"
       style="fill:none;stroke:#ffffff;stroke-width:2.65075326px;stroke-linecap:butt;stroke-linejoin:round;stroke-opacity:1;stroke-dasharray:none"
       d="m 548.81275,888.08811 c 0,-2.43012 1.97425,-4.38219 4.40716,-4.38219 l 17.54888,0 c 2.43291,0 4.38722,1.95207 4.38722,4.38219 l 0,17.58851 c 0,2.41021 -1.95431,4.3822 -4.38722,4.3822 l -17.54888,0 c -2.43291,0 -4.40716,-1.97199 -4.40716,-4.3822 z"
       id="path3021" />
    <path
       inkscape:connector-curvature="0"
       style="fill:none;stroke:#ffffff;stroke-width:2.64857125px;stroke-linecap:butt;stroke-linejoin:round;stroke-opacity:1;stroke-dasharray:none"
       d="m 115.89276,686.2633 c 0,-26.62144 21.58982,-48.20533 48.21861,-48.20533 l 192.89429,0 c 26.62879,0 48.23853,21.58389 48.23853,48.20533 l 0,192.94077 c 0,26.62144 -21.60974,48.20533 -48.23853,48.20533 l -192.89429,0 c -26.62879,0 -48.21861,-21.58389 -48.21861,-48.20533 z"
       id="path3023" />
    <path
       inkscape:connector-curvature="0"
       style="fill:#ffffff;fill-opacity:1;fill-rule:evenodd;stroke:none"
       d="m 157.88155,684.2764 c 0,-2.42016 1.96428,-4.38219 4.38722,-4.38219 l 17.55885,0 c 2.42294,0 4.38722,1.96203 4.38722,4.38219 l 0,17.53872 c 0,2.43013 -1.96428,4.39215 -4.38722,4.39215 l -17.55885,0 c -2.42294,0 -4.38722,-1.96202 -4.38722,-4.39215 z"
       id="path3025" />
    <path
       inkscape:connector-curvature="0"
       style="fill:none;stroke:#ffffff;stroke-width:2.66071844px;stroke-linecap:butt;stroke-linejoin:round;stroke-opacity:1;stroke-dasharray:none"
       d="m 157.88155,684.2764 c 0,-2.42016 1.96428,-4.38219 4.38722,-4.38219 l 17.55885,0 c 2.42294,0 4.38722,1.96203 4.38722,4.38219 l 0,17.53872 c 0,2.43013 -1.96428,4.39215 -4.38722,4.39215 l -17.55885,0 c -2.42294,0 -4.38722,-1.96202 -4.38722,-4.39215 z"
       id="path3027" />
    <path
       inkscape:connector-curvature="0"
       style="fill:#ffffff;fill-opacity:1;fill-rule:evenodd;stroke:none"
       d="m 224.57726,733.2175 c 0,-2.43012 1.97425,-4.38219 4.38722,-4.38219 l 17.56882,0 c 2.41297,0 4.38722,1.95207 4.38722,4.38219 l 0,17.54868 c 0,2.41021 -1.97425,4.38219 -4.38722,4.38219 l -17.56882,0 c -2.41297,0 -4.38722,-1.97198 -4.38722,-4.38219 z"
       id="path3029" />
    <path
       inkscape:connector-curvature="0"
       style="fill:none;stroke:#ffffff;stroke-width:2.65075326px;stroke-linecap:butt;stroke-linejoin:round;stroke-opacity:1;stroke-dasharray:none"
       d="m 224.57726,733.2175 c 0,-2.43012 1.97425,-4.38219 4.38722,-4.38219 l 17.56882,0 c 2.41297,0 4.38722,1.95207 4.38722,4.38219 l 0,17.54868 c 0,2.41021 -1.97425,4.38219 -4.38722,4.38219 l -17.56882,0 c -2.41297,0 -4.38722,-1.97198 -4.38722,-4.38219 z"
       id="path3031" />
    <path
       inkscape:connector-curvature="0"
       style="fill:#ffffff;fill-opacity:1;fill-rule:evenodd;stroke:none"
       d="m 224.57726,782.13868 c 0,-2.4102 1.97425,-4.38218 4.38722,-4.38218 l 17.56882,0 c 2.41297,0 4.38722,1.97198 4.38722,4.38218 l 0,17.54869 c 0,2.43012 -1.97425,4.38219 -4.38722,4.38219 l -17.56882,0 c -2.41297,0 -4.38722,-1.95207 -4.38722,-4.38219 z"
       id="path3033" />
    <path
       inkscape:connector-curvature="0"
       style="fill:none;stroke:#ffffff;stroke-width:2.65075326px;stroke-linecap:butt;stroke-linejoin:round;stroke-opacity:1;stroke-dasharray:none"
       d="m 224.57726,782.13868 c 0,-2.4102 1.97425,-4.38218 4.38722,-4.38218 l 17.56882,0 c 2.41297,0 4.38722,1.97198 4.38722,4.38218 l 0,17.54869 c 0,2.43012 -1.97425,4.38219 -4.38722,4.38219 l -17.56882,0 c -2.41297,0 -4.38722,-1.95207 -4.38722,-4.38219 z"
       id="path3035" />
    <path
       inkscape:connector-curvature="0"
       style="fill:#ffffff;fill-opacity:1;fill-rule:evenodd;stroke:none"
       d="m 288.25177,831.07978 c 0,-2.4102 1.97425,-4.38218 4.38723,-4.38218 l 17.56882,0 c 2.41297,0 4.38721,1.97198 4.38721,4.38218 l 0,17.54869 c 0,2.43012 -1.97424,4.38219 -4.38721,4.38219 l -17.56882,0 c -2.41298,0 -4.38723,-1.95207 -4.38723,-4.38219 z"
       id="path3037" />
    <path
       inkscape:connector-curvature="0"
       style="fill:none;stroke:#ffffff;stroke-width:2.65075326px;stroke-linecap:butt;stroke-linejoin:round;stroke-opacity:1;stroke-dasharray:none"
       d="m 288.25177,831.07978 c 0,-2.4102 1.97425,-4.38218 4.38723,-4.38218 l 17.56882,0 c 2.41297,0 4.38721,1.97198 4.38721,4.38218 l 0,17.54869 c 0,2.43012 -1.97424,4.38219 -4.38721,4.38219 l -17.56882,0 c -2.41298,0 -4.38723,-1.95207 -4.38723,-4.38219 z"
       id="path3039" />
    <path
       inkscape:connector-curvature="0"
       style="fill:#ffffff;fill-opacity:1;fill-rule:evenodd;stroke:none"
       d="m 224.57726,872.79028 c 0,-2.43013 1.97425,-4.40212 4.38722,-4.40212 l 17.56882,0 c 2.41297,0 4.38722,1.97199 4.38722,4.40212 l 0,17.52876 c 0,2.43012 -1.97425,4.40211 -4.38722,4.40211 l -17.56882,0 c -2.41297,0 -4.38722,-1.97199 -4.38722,-4.40211 z"
       id="path3041" />
    <path
       inkscape:connector-curvature="0"
       style="fill:none;stroke:#ffffff;stroke-width:2.65075326px;stroke-linecap:butt;stroke-linejoin:round;stroke-opacity:1;stroke-dasharray:none"
       d="m 224.57726,872.79028 c 0,-2.43013 1.97425,-4.40212 4.38722,-4.40212 l 17.56882,0 c 2.41297,0 4.38722,1.97199 4.38722,4.40212 l 0,17.52876 c 0,2.43012 -1.97425,4.40211 -4.38722,4.40211 l -17.56882,0 c -2.41297,0 -4.38722,-1.97199 -4.38722,-4.40211 z"
       id="path3043" />
    <path
       inkscape:connector-curvature="0"
       style="fill:none;stroke:#ffffff;stroke-width:2.98957133px;stroke-linecap:butt;stroke-linejoin:round;stroke-opacity:1;stroke-dasharray:none"
       d="m 171.05317,706.20727 0,35.77461 53.52409,0"
       id="path3045" />
    <path
       inkscape:connector-curvature="0"
       style="fill:none;stroke:#ffffff;stroke-width:2.98957133px;stroke-linecap:butt;stroke-linejoin:round;stroke-opacity:1;stroke-dasharray:none"
       d="m 171.05317,706.20727 0,175.34738 53.52409,0"
       id="path3047" />
    <path
       inkscape:connector-curvature="0"
       style="fill:none;stroke:#ffffff;stroke-width:2.98957133px;stroke-linecap:butt;stroke-linejoin:round;stroke-opacity:1;stroke-dasharray:none"
       d="m 171.05317,706.20727 0,84.71571 53.52409,0"
       id="path3049" />
    <path
       inkscape:connector-curvature="0"
       style="fill:none;stroke:#ffffff;stroke-width:2.98957133px;stroke-linecap:butt;stroke-linejoin:round;stroke-opacity:1;stroke-dasharray:none"
       d="m 237.73892,804.06956 0,35.79452 50.51285,0"
       id="path3051" />
  </g>
</svg>
