<?xml version="1.0" encoding="UTF-8" standalone="no"?>
<svg
   xmlns:dc="http://purl.org/dc/elements/1.1/"
   xmlns:cc="http://creativecommons.org/ns#"
   xmlns:rdf="http://www.w3.org/1999/02/22-rdf-syntax-ns#"
   xmlns:svg="http://www.w3.org/2000/svg"
   xmlns="http://www.w3.org/2000/svg"
   xmlns:sodipodi="http://sodipodi.sourceforge.net/DTD/sodipodi-0.dtd"
   xmlns:inkscape="http://www.inkscape.org/namespaces/inkscape"
   version="1.0"
   width="440"
   height="280"
   id="svg2985"
   inkscape:version="0.48.5 r10040"
   sodipodi:docname="promotional small tile.svg"
   inkscape:export-filename="D:\Documents\Dropbox\Programming\screenshots\promotional small tile.png"
   inkscape:export-xdpi="90"
   inkscape:export-ydpi="90">
  <metadata
     id="metadata3031">
    <rdf:RDF>
      <cc:Work
         rdf:about="">
        <dc:format>image/svg+xml</dc:format>
        <dc:type
           rdf:resource="http://purl.org/dc/dcmitype/StillImage" />
        <dc:title></dc:title>
      </cc:Work>
    </rdf:RDF>
  </metadata>
  <sodipodi:namedview
     pagecolor="#1560bd"
     bordercolor="#666666"
     borderopacity="1"
     objecttolerance="10"
     gridtolerance="10"
     guidetolerance="10"
     inkscape:pageopacity="1"
     inkscape:pageshadow="2"
     inkscape:window-width="1920"
     inkscape:window-height="1058"
     id="namedview3029"
     showgrid="false"
     inkscape:zoom="1.8601416"
     inkscape:cx="332.68417"
     inkscape:cy="142.87034"
     inkscape:window-x="1912"
     inkscape:window-y="-8"
     inkscape:window-maximized="1"
     inkscape:current-layer="svg2985" />
  <defs
     id="defs2987" />
  <text
     id="text2995"
     style="font-size:40.05997849px;font-style:normal;font-weight:normal;text-align:start;text-anchor:start;fill:#ffffff;font-family:Lato"
     y="238.75339"
     x="61.787937"
     xml:space="preserve">Practical </text>
  <text
     id="text2997"
     style="font-size:40.05997849px;font-style:normal;font-weight:normal;text-align:start;text-anchor:start;fill:#ffffff;font-family:Lato"
     y="238.75339"
     x="221.4277"
     xml:space="preserve">Startpage</text>
  <path
     inkscape:connector-curvature="0"
     id="path2999"
     d="m 163.45719,61.801114 c 0,-12.659145 10.253,-22.917729 22.90523,-22.917729 l 91.6959,0 c 12.65224,0 22.90524,10.258584 22.90524,22.917729 l 0,91.670896 c 0,12.65915 -10.253,22.91774 -22.90524,22.91774 l -91.6959,0 c -12.65223,0 -22.90523,-10.25859 -22.90523,-22.91774 z"
     style="fill:none;stroke:#ffffff;stroke-width:2.49363899px;stroke-linecap:butt;stroke-linejoin:round;stroke-opacity:1;stroke-dasharray:none" />
  <path
     inkscape:connector-curvature="0"
     id="path3001"
     d="m 183.39377,60.879359 c 0,-1.14404 0.93774,-2.08177 2.08177,-2.08177 l 8.34583,0 c 1.14403,0 2.08177,0.93773 2.08177,2.08177 l 0,8.34583 c 0,1.14403 -0.93774,2.08176 -2.08177,2.08176 l -8.34583,0 c -1.14403,0 -2.08177,-0.93773 -2.08177,-2.08176 z"
     style="fill:#ffffff;fill-opacity:1;fill-rule:evenodd;stroke:none" />
  <path
     inkscape:connector-curvature="0"
     id="path3003"
     d="m 183.39377,60.879359 c 0,-1.14404 0.93774,-2.08177 2.08177,-2.08177 l 8.34583,0 c 1.14403,0 2.08177,0.93773 2.08177,2.08177 l 0,8.34583 c 0,1.14403 -0.93774,2.08176 -2.08177,2.08176 l -8.34583,0 c -1.14403,0 -2.08177,-0.93773 -2.08177,-2.08176 z"
     style="fill:none;stroke:#ffffff;stroke-width:2.49437141px;stroke-linecap:butt;stroke-linejoin:round;stroke-opacity:1;stroke-dasharray:none" />
  <path
     inkscape:connector-curvature="0"
     id="path3005"
     d="m 215.07041,84.135149 c 0,-1.14403 0.93774,-2.08177 2.08177,-2.08177 l 8.34583,0 c 1.14404,0 2.08177,0.93774 2.08177,2.08177 l 0,8.32708 c 0,1.16278 -0.93773,2.08176 -2.08177,2.08176 l -8.34583,0 c -1.14403,0 -2.08177,-0.91898 -2.08177,-2.08176 z"
     style="fill:#ffffff;fill-opacity:1;fill-rule:evenodd;stroke:none" />
  <path
     inkscape:connector-curvature="0"
     id="path3007"
     d="m 215.07041,84.135149 c 0,-1.14403 0.93774,-2.08177 2.08177,-2.08177 l 8.34583,0 c 1.14404,0 2.08177,0.93774 2.08177,2.08177 l 0,8.32708 c 0,1.16278 -0.93773,2.08176 -2.08177,2.08176 l -8.34583,0 c -1.14403,0 -2.08177,-0.91898 -2.08177,-2.08176 z"
     style="fill:none;stroke:#ffffff;stroke-width:2.49437141px;stroke-linecap:butt;stroke-linejoin:round;stroke-opacity:1;stroke-dasharray:none" />
  <path
     inkscape:connector-curvature="0"
     id="path3009"
     d="m 215.07041,107.39094 c 0,-1.16279 0.93774,-2.10052 2.08177,-2.10052 l 8.34583,0 c 1.14404,0 2.08177,0.93773 2.08177,2.10052 l 0,8.32708 c 0,1.14403 -0.93773,2.08177 -2.08177,2.08177 l -8.34583,0 c -1.14403,0 -2.08177,-0.93774 -2.08177,-2.08177 z"
     style="fill:#ffffff;fill-opacity:1;fill-rule:evenodd;stroke:none" />
  <path
     inkscape:connector-curvature="0"
     id="path3011"
     d="m 215.07041,107.39094 c 0,-1.16279 0.93774,-2.10052 2.08177,-2.10052 l 8.34583,0 c 1.14404,0 2.08177,0.93773 2.08177,2.10052 l 0,8.32708 c 0,1.14403 -0.93773,2.08177 -2.08177,2.08177 l -8.34583,0 c -1.14403,0 -2.08177,-0.93774 -2.08177,-2.08177 z"
     style="fill:none;stroke:#ffffff;stroke-width:2.49437141px;stroke-linecap:butt;stroke-linejoin:round;stroke-opacity:1;stroke-dasharray:none" />
  <path
     inkscape:connector-curvature="0"
     id="path3013"
     d="m 245.3217,130.62798 c 0,-1.14403 0.91898,-2.08177 2.08177,-2.08177 l 8.32707,0 c 1.16279,0 2.10053,0.93774 2.10053,2.08177 l 0,8.32708 c 0,1.16279 -0.93774,2.10052 -2.10053,2.10052 l -8.32707,0 c -1.16279,0 -2.08177,-0.93773 -2.08177,-2.10052 z"
     style="fill:#ffffff;fill-opacity:1;fill-rule:evenodd;stroke:none" />
  <path
     inkscape:connector-curvature="0"
     id="path3015"
     d="m 245.3217,130.62798 c 0,-1.14403 0.91898,-2.08177 2.08177,-2.08177 l 8.32707,0 c 1.16279,0 2.10053,0.93774 2.10053,2.08177 l 0,8.32708 c 0,1.16279 -0.93774,2.10052 -2.10053,2.10052 l -8.32707,0 c -1.16279,0 -2.08177,-0.93773 -2.08177,-2.10052 z"
     style="fill:none;stroke:#ffffff;stroke-width:2.49437141px;stroke-linecap:butt;stroke-linejoin:round;stroke-opacity:1;stroke-dasharray:none" />
  <path
     inkscape:connector-curvature="0"
     id="path3017"
     d="m 215.07041,150.43292 c 0,-1.14404 0.93774,-2.08177 2.08177,-2.08177 l 8.34583,0 c 1.14404,0 2.08177,0.93773 2.08177,2.08177 l 0,8.34583 c 0,1.14403 -0.93773,2.08176 -2.08177,2.08176 l -8.34583,0 c -1.14403,0 -2.08177,-0.93773 -2.08177,-2.08176 z"
     style="fill:#ffffff;fill-opacity:1;fill-rule:evenodd;stroke:none" />
  <path
     inkscape:connector-curvature="0"
     id="path3019"
     d="m 215.07041,150.43292 c 0,-1.14404 0.93774,-2.08177 2.08177,-2.08177 l 8.34583,0 c 1.14404,0 2.08177,0.93773 2.08177,2.08177 l 0,8.34583 c 0,1.14403 -0.93773,2.08176 -2.08177,2.08176 l -8.34583,0 c -1.14403,0 -2.08177,-0.93773 -2.08177,-2.08176 z"
     style="fill:none;stroke:#ffffff;stroke-width:2.49437141px;stroke-linecap:butt;stroke-linejoin:round;stroke-opacity:1;stroke-dasharray:none" />
  <path
     inkscape:connector-curvature="0"
     id="path3021"
     d="m 189.65783,71.306949 0,16.99174 25.41258,0"
     style="fill:none;stroke:#ffffff;stroke-width:2.81320095px;stroke-linecap:butt;stroke-linejoin:round;stroke-opacity:1;stroke-dasharray:none" />
  <path
     inkscape:connector-curvature="0"
     id="path3023"
     d="m 189.65783,71.306949 0,83.289501 25.41258,0"
     style="fill:none;stroke:#ffffff;stroke-width:2.81320095px;stroke-linecap:butt;stroke-linejoin:round;stroke-opacity:1;stroke-dasharray:none" />
  <path
     inkscape:connector-curvature="0"
     id="path3025"
     d="m 189.65783,71.306949 0,40.247531 25.41258,0"
     style="fill:none;stroke:#ffffff;stroke-width:2.81320095px;stroke-linecap:butt;stroke-linejoin:round;stroke-opacity:1;stroke-dasharray:none" />
  <path
     inkscape:connector-curvature="0"
     id="path3027"
     d="m 221.33447,117.79979 0,16.99173 23.98723,0"
     style="fill:none;stroke:#ffffff;stroke-width:2.81320095px;stroke-linecap:butt;stroke-linejoin:round;stroke-opacity:1;stroke-dasharray:none" />
</svg>
